<svg id="Layer" enable-background="new 0 0 64 64" height="512" viewBox="0 0 64 64" width="512" xmlns="http://www.w3.org/2000/svg"><path d="m54 52h-6.646l-7.354-18.385v-9.615h6v2c0 1.104.896 2 2 2s2-.896 2-2v-2c0-2.206-1.794-4-4-4h-6c0-.298-.066-.591-.194-.859l-4.285-9c-.027-.059-.058-.114-.091-.17-.73-1.216-2.012-1.943-3.43-1.943s-2.7.727-3.43 1.942c-.033.056-.063.111-.091.17l-4.285 9c-.128.269-.194.562-.194.86h-6c-2.206 0-4 1.794-4 4v2c0 1.104.896 2 2 2s2-.896 2-2v-2h6v9.615l-7.354 18.385h-6.646c-1.104 0-2 .896-2 2s.896 2 2 2h35.994c.002 0 .004.001.007.001s.007-.001.01-.001h7.989c1.104 0 2-.896 2-2s-.896-2-2-2zm-29.417-9.072 3.915 2.724-6.934 4.824zm2.771-6.928h9.292l1.246 3.116-5.892 4.099-5.892-4.099zm15.082 14.476-6.934-4.824 3.915-2.724zm-10.436-2.388 5.623 3.912h-11.246zm0-36.037 3.785 7.949h-7.569zm4 11.949v8h-8v-8z"/></svg>